<svg id="图层_1" data-name="图层 1" xmlns="http://www.w3.org/2000/svg" viewBox="0 0 24 24"><defs><style>.cls-1{fill:#009494;}</style></defs><title>shuaxin</title><path class="cls-1" d="M20.38,14l2.84.22a12.28,12.28,0,0,1-2.87,5.4L18.51,17.4A8.75,8.75,0,0,0,20.38,14Zm.28-2.84,2.84.22a10.53,10.53,0,0,0-1.79-5.76L19.48,7.46A8.45,8.45,0,0,1,20.66,11.13ZM10,1.51.82.8,3.66,4.19A11.5,11.5,0,0,0,3.1,19.38a11.45,11.45,0,0,0,15,2.08l-1.83-2.18a8.62,8.62,0,0,1-11-1.77A8.65,8.65,0,0,1,5.49,6.38l3.57,4.26Zm9.93,1.9Zm-5.63.07a8.43,8.43,0,0,1,3.4,1.8l2.23-1.87A11.64,11.64,0,0,0,14.53.64Z"/></svg>
